<svg width="471.63124999999997px" height="123.2px" xmlns="http://www.w3.org/2000/svg" viewBox="14.184375000000017 13.399999999999999 471.63124999999997 123.2" style="background: rgba(0, 0, 0, 0);" preserveAspectRatio="xMidYMid"><defs><filter id="editing-hole" x="-100%" y="-100%" width="300%" height="300%"><feFlood flood-color="#000000" result="black"></feFlood><feMorphology operator="dilate" radius="2" in="SourceGraphic" result="erode"></feMorphology><feGaussianBlur in="erode" stdDeviation="4" result="blur"></feGaussianBlur><feOffset in="blur" dx="2" dy="2" result="offset"></feOffset><feComposite operator="atop" in="offset" in2="black" result="merge"></feComposite><feComposite operator="in" in="merge" in2="SourceGraphic" result="inner-shadow"></feComposite></filter></defs><g filter="url(#editing-hole)"><g transform="translate(82.93028736114502, 99.64000129699707)"><path d="M35.71-33.73L35.71-33.60L35.71-33.60Q35.71-29.76 33.57-26.85L33.57-26.85L33.57-26.85Q31.42-23.94 28.10-22.27L28.10-22.27L26.56-21.76L27.84-21.25L27.84-21.25Q30.21-19.65 31.46-17.34L31.46-17.34L31.46-17.34Q32.70-15.04 33.57-12.26L33.57-12.26L33.57-12.26Q34.43-9.47 35.23-6.37L35.23-6.37L35.23-6.37Q36.03-3.26 37.50 0L37.50 0L31.10 0L31.10 0Q29.82-2.75 29.09-5.89L29.09-5.89L29.09-5.89Q28.35-9.02 27.46-11.90L27.46-11.90L27.46-11.90Q26.56-14.78 25.18-17.02L25.18-17.02L25.18-17.02Q23.81-19.26 21.31-20.22L21.31-20.22L21.31-20.22Q21.12-20.16 20.74-20.16L20.74-20.16L20.74-20.16Q19.33-20.03 17.73-20.13L17.73-20.13L17.73-20.13Q16.13-20.22 14.34-20.67L14.34-20.67L14.34-20.67Q15.04-22.34 16.48-23.42L16.48-23.42L16.48-23.42Q17.92-24.51 19.97-24.58L19.97-24.58L19.97-24.58Q21.63-24.64 23.30-25.34L23.30-25.34L23.30-25.34Q24.96-26.05 26.27-27.23L26.27-27.23L26.27-27.23Q27.58-28.42 28.42-30.08L28.42-30.08L28.42-30.08Q29.25-31.74 29.25-33.73L29.25-33.73L29.25-33.73Q29.25-35.65 28.42-37.28L28.42-37.28L28.42-37.28Q27.58-38.91 26.18-40.13L26.18-40.13L26.18-40.13Q24.77-41.34 22.88-42.05L22.88-42.05L22.88-42.05Q20.99-42.75 18.82-42.75L18.82-42.75L18.82-42.75Q17.02-42.75 15.55-42.69L15.55-42.69L15.55-42.69Q14.08-42.62 11.78-42.18L11.78-42.18L11.78 0L5.70 0L5.70-45.95L5.70-45.95Q9.28-46.66 12.29-47.04L12.29-47.04L12.29-47.04Q15.30-47.42 18.82-47.42L18.82-47.42L18.82-47.42Q22.66-47.42 25.79-46.34L25.79-46.34L25.79-46.34Q28.93-45.25 31.14-43.36L31.14-43.36L31.14-43.36Q33.34-41.47 34.53-38.98L34.53-38.98L34.53-38.98Q35.71-36.48 35.71-33.73L35.71-33.73ZM58.75-20.29L66.88-20.29L66.88-20.29Q67.07-22.14 66.62-23.74L66.62-23.74L66.62-23.74Q66.18-25.34 65.25-26.56L65.25-26.56L65.25-26.56Q64.32-27.78 62.98-28.45L62.98-28.45L62.98-28.45Q61.63-29.12 60.10-29.12L60.10-29.12L60.10-29.12Q56.06-29.12 53.54-25.92L53.54-25.92L53.54-25.92Q51.01-22.72 51.01-16.77L51.01-16.77L51.01-16.77Q51.01-13.89 51.78-11.55L51.78-11.55L51.78-11.55Q52.54-9.22 53.92-7.52L53.92-7.52L53.92-7.52Q55.30-5.82 57.15-4.90L57.15-4.90L57.15-4.90Q59.01-3.97 61.18-3.97L61.18-3.97L61.18-3.97Q63.42-3.97 65.38-4.42L65.38-4.42L65.38-4.42Q67.33-4.86 70.08-6.27L70.08-6.27L71.68-2.05L71.68-2.05Q68.61-0.45 65.73 0.10L65.73 0.10L65.73 0.10Q62.85 0.64 60.54 0.64L60.54 0.64L60.54 0.64Q57.02 0.64 54.14-0.67L54.14-0.67L54.14-0.67Q51.26-1.98 49.25-4.32L49.25-4.32L49.25-4.32Q47.23-6.66 46.14-9.86L46.14-9.86L46.14-9.86Q45.06-13.06 45.06-16.83L45.06-16.83L45.06-16.83Q45.06-20.74 46.14-23.84L46.14-23.84L46.14-23.84Q47.23-26.94 49.28-29.15L49.28-29.15L49.28-29.15Q51.33-31.36 54.21-32.54L54.21-32.54L54.21-32.54Q57.09-33.73 60.74-33.73L60.74-33.73L60.74-33.73Q64-33.73 66.56-32.26L66.56-32.26L66.56-32.26Q69.12-30.78 70.66-28.32L70.66-28.32L70.66-28.32Q72.19-25.86 72.54-22.66L72.54-22.66L72.54-22.66Q72.90-19.46 71.87-16L71.87-16L53.31-16L53.31-16Q54.02-17.86 55.23-19.07L55.23-19.07L55.23-19.07Q56.45-20.29 58.75-20.29L58.75-20.29ZM105.28-20.10L105.28-10.94L105.28-10.94Q105.28-7.10 105.57-4.38L105.57-4.38L105.57-4.38Q105.86-1.66 106.30 0L106.30 0L101.95 0L101.95 0Q101.06-0.51 100.54-1.38L100.54-1.38L100.54-1.38Q100.03-2.24 99.65-3.26L99.65-3.26L99.58-4.42L98.88-3.26L98.88-3.26Q96.45-0.83 94.37-0.10L94.37-0.10L94.37-0.10Q92.29 0.64 89.98 0.64L89.98 0.64L89.98 0.64Q87.49 0.64 85.50-0.06L85.50-0.06L85.50-0.06Q83.52-0.77 82.11-1.98L82.11-1.98L82.11-1.98Q80.70-3.20 79.97-4.86L79.97-4.86L79.97-4.86Q79.23-6.53 79.23-8.45L79.23-8.45L79.23-8.45Q79.23-10.88 80.16-12.67L80.16-12.67L80.16-12.67Q81.09-14.46 83.17-15.74L83.17-15.74L83.17-15.74Q85.25-17.02 88.64-17.89L88.64-17.89L88.64-17.89Q92.03-18.75 96.96-19.33L96.96-19.33L96.96-19.33Q96.83-18.75 96.61-17.98L96.61-17.98L96.61-17.98Q96.38-17.22 95.84-16.48L95.84-16.48L95.84-16.48Q95.30-15.74 94.46-15.17L94.46-15.17L94.46-15.17Q93.63-14.59 92.35-14.40L92.35-14.40L92.35-14.40Q90.24-14.08 88.93-13.50L88.93-13.50L88.93-13.50Q87.62-12.93 86.85-12.19L86.85-12.19L86.85-12.19Q86.08-11.46 85.82-10.59L85.82-10.59L85.82-10.59Q85.57-9.73 85.57-8.83L85.57-8.83L85.57-8.83Q85.57-6.85 86.98-5.41L86.98-5.41L86.98-5.41Q88.38-3.97 90.82-3.97L90.82-3.97L90.82-3.97Q92.99-3.97 95.20-5.06L95.20-5.06L95.20-5.06Q97.41-6.14 99.26-8.58L99.26-8.58L99.26-20.54L99.26-20.54Q99.26-24.32 97.41-26.72L97.41-26.72L97.41-26.72Q95.55-29.12 91.20-29.12L91.20-29.12L91.20-29.12Q89.47-29.12 87.78-28.77L87.78-28.77L87.78-28.77Q86.08-28.42 83.78-27.58L83.78-27.58L82.30-31.55L82.30-31.55Q85.44-32.90 87.84-33.31L87.84-33.31L87.84-33.31Q90.24-33.73 92.35-33.73L92.35-33.73L92.35-33.73Q98.56-33.73 101.92-30.18L101.92-30.18L101.92-30.18Q105.28-26.62 105.28-20.10L105.28-20.10ZM128.13 0.64L128.13 0.64L128.13 0.64Q124.93 0.64 122.11-0.48L122.11-0.48L122.11-0.48Q119.30-1.60 117.22-3.78L117.22-3.78L117.22-3.78Q115.14-5.95 113.92-9.18L113.92-9.18L113.92-9.18Q112.70-12.42 112.70-16.58L112.70-16.58L112.70-16.58Q112.70-20.74 113.95-23.94L113.95-23.94L113.95-23.94Q115.20-27.14 117.31-29.31L117.31-29.31L117.31-29.31Q119.42-31.49 122.24-32.61L122.24-32.61L122.24-32.61Q125.06-33.73 128.13-33.73L128.13-33.73L128.13-33.73Q129.86-33.73 131.94-33.41L131.94-33.41L131.94-33.41Q134.02-33.09 135.94-32.38L135.94-32.38L134.46-28.22L134.46-28.22Q132.61-28.74 131.10-28.93L131.10-28.93L131.10-28.93Q129.60-29.12 128.13-29.12L128.13-29.12L128.13-29.12Q126.27-29.12 124.64-28.35L124.64-28.35L124.64-28.35Q123.01-27.58 121.76-26.05L121.76-26.05L121.76-26.05Q120.51-24.51 119.78-22.14L119.78-22.14L119.78-22.14Q119.04-19.78 119.04-16.58L119.04-16.58L119.04-16.58Q119.04-13.31 119.78-10.94L119.78-10.94L119.78-10.94Q120.51-8.58 121.76-7.04L121.76-7.04L121.76-7.04Q123.01-5.50 124.64-4.74L124.64-4.74L124.64-4.74Q126.27-3.97 128.13-3.97L128.13-3.97L128.13-3.97Q129.54-3.97 131.23-4.38L131.23-4.38L131.23-4.38Q132.93-4.80 135.17-5.82L135.17-5.82L136.77-1.60L136.77-1.60Q134.14-0.32 131.87 0.16L131.87 0.16L131.87 0.16Q129.60 0.64 128.13 0.64ZM143.87-12.22L143.87-28.67L137.98-28.67L137.98-31.55L143.87-33.09L143.87-41.54L149.50-43.33L149.50-11.52L149.50-11.52Q149.50-8.19 150.91-5.98L150.91-5.98L150.91-5.98Q152.32-3.78 154.69-3.78L154.69-3.78L154.69-3.78Q155.97-3.78 157.12-4L157.12-4L157.12-4Q158.27-4.22 159.94-4.74L159.94-4.74L161.34-0.70L161.34-0.70Q158.91 0.13 157.57 0.42L157.57 0.42L157.57 0.42Q156.22 0.70 154.69 0.70L154.69 0.70L154.69 0.70Q149.44 0.70 146.66-2.69L146.66-2.69L146.66-2.69Q143.87-6.08 143.87-12.22L143.87-12.22ZM160.83-28.67L157.18-28.67L157.18-28.67Q154.94-28.67 153.70-29.95L153.70-29.95L153.70-29.95Q152.45-31.23 151.81-33.09L151.81-33.09L160.83-33.09L160.83-28.67ZM208.83 0.77L208.83 0.77L208.83 0.77Q203.90 0.77 199.68-0.90L199.68-0.90L199.68-0.90Q195.46-2.56 192.32-5.66L192.32-5.66L192.32-5.66Q189.18-8.77 187.42-13.18L187.42-13.18L187.42-13.18Q185.66-17.60 185.66-23.17L185.66-23.17L185.66-23.17Q185.66-28.54 187.42-32.99L187.42-32.99L187.42-32.99Q189.18-37.44 192.32-40.64L192.32-40.64L192.32-40.64Q195.46-43.84 199.68-45.60L199.68-45.60L199.68-45.60Q203.90-47.36 208.83-47.36L208.83-47.36L208.83-47.36Q211.52-47.36 214.37-46.82L214.37-46.82L214.37-46.82Q217.22-46.27 220.16-45.18L220.16-45.18L218.50-41.02L218.50-41.02Q215.68-41.92 213.38-42.30L213.38-42.30L213.38-42.30Q211.07-42.69 208.83-42.69L208.83-42.69L208.83-42.69Q205.50-42.69 202.50-41.47L202.50-41.47L202.50-41.47Q199.49-40.26 197.18-37.82L197.18-37.82L197.18-37.82Q194.88-35.39 193.54-31.71L193.54-31.71L193.54-31.71Q192.19-28.03 192.19-23.17L192.19-23.17L192.19-23.17Q192.19-18.82 193.54-15.26L193.54-15.26L193.54-15.26Q194.88-11.71 197.18-9.15L197.18-9.15L197.18-9.15Q199.49-6.59 202.50-5.22L202.50-5.22L202.50-5.22Q205.50-3.84 208.83-3.84L208.83-3.84L208.83-3.84Q211.07-3.84 213.44-4.42L213.44-4.42L213.44-4.42Q215.81-4.99 218.50-6.34L218.50-6.34L220.16-2.18L220.16-2.18Q217.15-0.58 214.34 0.10L214.34 0.10L214.34 0.10Q211.52 0.77 208.83 0.77ZM225.34-16.58L225.34-16.58L225.34-16.58Q225.34-20.99 226.69-24.22L226.69-24.22L226.69-24.22Q228.03-27.46 230.21-29.57L230.21-29.57L230.21-29.57Q232.38-31.68 235.17-32.70L235.17-32.70L235.17-32.70Q237.95-33.73 240.77-33.73L240.77-33.73L240.77-33.73Q244.42-33.73 247.30-32.38L247.30-32.38L247.30-32.38Q250.18-31.04 252.16-28.74L252.16-28.74L252.16-28.74Q254.14-26.43 255.17-23.30L255.17-23.30L255.17-23.30Q256.19-20.16 256.19-16.58L256.19-16.58L256.19-16.58Q256.19-12.42 254.94-9.18L254.94-9.18L254.94-9.18Q253.70-5.95 251.58-3.78L251.58-3.78L251.58-3.78Q249.47-1.60 246.66-0.48L246.66-0.48L246.66-0.48Q243.84 0.64 240.77 0.64L240.77 0.64L240.77 0.64Q237.57 0.64 234.75-0.48L234.75-0.48L234.75-0.48Q231.94-1.60 229.86-3.78L229.86-3.78L229.86-3.78Q227.78-5.95 226.56-9.18L226.56-9.18L226.56-9.18Q225.34-12.42 225.34-16.58ZM231.68-16.58L231.68-16.58L231.68-16.58Q231.68-13.76 232.29-11.46L232.29-11.46L232.29-11.46Q232.90-9.15 234.05-7.49L234.05-7.49L234.05-7.49Q235.20-5.82 236.90-4.90L236.90-4.90L236.90-4.90Q238.59-3.97 240.77-3.97L240.77-3.97L240.77-3.97Q243.07-3.97 244.80-4.96L244.80-4.96L244.80-4.96Q246.53-5.95 247.65-7.68L247.65-7.68L247.65-7.68Q248.77-9.41 249.31-11.71L249.31-11.71L249.31-11.71Q249.86-14.02 249.86-16.58L249.86-16.58L249.86-16.58Q249.86-19.78 249.12-22.14L249.12-22.14L249.12-22.14Q248.38-24.51 247.14-26.05L247.14-26.05L247.14-26.05Q245.89-27.58 244.22-28.35L244.22-28.35L244.22-28.35Q242.56-29.12 240.77-29.12L240.77-29.12L240.77-29.12Q238.91-29.12 237.28-28.35L237.28-28.35L237.28-28.35Q235.65-27.58 234.40-26.05L234.40-26.05L234.40-26.05Q233.15-24.51 232.42-22.14L232.42-22.14L232.42-22.14Q231.68-19.78 231.68-16.58ZM262.27-16.70L262.27-16.70L262.27-16.70Q262.27-20.54 263.52-23.65L263.52-23.65L263.52-23.65Q264.77-26.75 266.85-28.93L266.85-28.93L266.85-28.93Q268.93-31.10 271.58-32.29L271.58-32.29L271.58-32.29Q274.24-33.47 277.12-33.47L277.12-33.47L277.12-33.47Q278.59-33.47 280.19-33.25L280.19-33.25L280.19-33.25Q281.79-33.02 283.52-32.38L283.52-32.38L283.52-32.38Q282.62-30.78 281.18-29.79L281.18-29.79L281.18-29.79Q279.74-28.80 277.50-28.86L277.50-28.86L277.50-28.86Q275.84-28.93 274.24-28.26L274.24-28.26L274.24-28.26Q272.64-27.58 271.39-26.11L271.39-26.11L271.39-26.11Q270.14-24.64 269.38-22.30L269.38-22.30L269.38-22.30Q268.61-19.97 268.61-16.70L268.61-16.70L268.61-16.70Q268.61-13.89 269.18-11.55L269.18-11.55L269.18-11.55Q269.76-9.22 270.85-7.55L270.85-7.55L270.85-7.55Q271.94-5.89 273.57-4.93L273.57-4.93L273.57-4.93Q275.20-3.97 277.31-3.97L277.31-3.97L277.31-3.97Q281.86-3.97 285.70-8.64L285.70-8.64L285.70-48.51L291.65-48.51L291.65-10.94L291.65-10.94Q291.65-7.10 291.94-4.38L291.94-4.38L291.94-4.38Q292.22-1.66 292.61 0L292.61 0L288.32 0L288.32 0Q287.55-0.70 287.07-1.44L287.07-1.44L287.07-1.44Q286.59-2.18 286.08-3.46L286.08-3.46L285.95-4.48L285.44-3.39L285.44-3.39Q283.46-1.15 280.90-0.26L280.90-0.26L280.90-0.26Q278.34 0.64 276.35 0.64L276.35 0.64L276.35 0.64Q272.96 0.64 270.37-0.70L270.37-0.70L270.37-0.70Q267.78-2.05 265.95-4.38L265.95-4.38L265.95-4.38Q264.13-6.72 263.20-9.89L263.20-9.89L263.20-9.89Q262.27-13.06 262.27-16.70ZM314.56-20.29L322.69-20.29L322.69-20.29Q322.88-22.14 322.43-23.74L322.43-23.74L322.43-23.74Q321.98-25.34 321.06-26.56L321.06-26.56L321.06-26.56Q320.13-27.78 318.78-28.45L318.78-28.45L318.78-28.45Q317.44-29.12 315.90-29.12L315.90-29.12L315.90-29.12Q311.87-29.12 309.34-25.92L309.34-25.92L309.34-25.92Q306.82-22.72 306.82-16.77L306.82-16.77L306.82-16.77Q306.82-13.89 307.58-11.55L307.58-11.55L307.58-11.55Q308.35-9.22 309.73-7.52L309.73-7.52L309.73-7.52Q311.10-5.82 312.96-4.90L312.96-4.90L312.96-4.90Q314.82-3.97 316.99-3.97L316.99-3.97L316.99-3.97Q319.23-3.97 321.18-4.42L321.18-4.42L321.18-4.42Q323.14-4.86 325.89-6.27L325.89-6.27L327.49-2.05L327.49-2.05Q324.42-0.45 321.54 0.10L321.54 0.10L321.54 0.10Q318.66 0.64 316.35 0.64L316.35 0.64L316.35 0.64Q312.83 0.64 309.95-0.67L309.95-0.67L309.95-0.67Q307.07-1.98 305.06-4.32L305.06-4.32L305.06-4.32Q303.04-6.66 301.95-9.86L301.95-9.86L301.95-9.86Q300.86-13.06 300.86-16.83L300.86-16.83L300.86-16.83Q300.86-20.74 301.95-23.84L301.95-23.84L301.95-23.84Q303.04-26.94 305.09-29.15L305.09-29.15L305.09-29.15Q307.14-31.36 310.02-32.54L310.02-32.54L310.02-32.54Q312.90-33.73 316.54-33.73L316.54-33.73L316.54-33.73Q319.81-33.73 322.37-32.26L322.37-32.26L322.37-32.26Q324.93-30.78 326.46-28.32L326.46-28.32L326.46-28.32Q328-25.86 328.35-22.66L328.35-22.66L328.35-22.66Q328.70-19.46 327.68-16L327.68-16L309.12-16L309.12-16Q309.82-17.86 311.04-19.07L311.04-19.07L311.04-19.07Q312.26-20.29 314.56-20.29L314.56-20.29Z" fill="#000000"></path></g></g><style>text {
  font-size: 64px;
  font-family: Arial Black;
  dominant-baseline: central;
  text-anchor: middle;
}</style></svg>